<svg width="20" height="20" viewBox="0 0 20 20" fill="none" xmlns="http://www.w3.org/2000/svg">
<path d="M5.24501 4.03047L3.47085 14.7271C3.32085 15.628 3.24668 16.0788 3.49585 16.373C3.74335 16.668 4.19751 16.668 5.10668 16.668H5.44168C6.12751 16.668 6.47001 16.668 6.70418 16.4646C6.93751 16.2605 6.98668 15.9196 7.08335 15.2371L7.47335 12.4955C7.50418 12.2788 7.51918 12.1705 7.54335 12.078C7.62709 11.7538 7.807 11.4625 8.05941 11.2425C8.31183 11.0226 8.62493 10.8841 8.95751 10.8455C9.05168 10.8346 9.16085 10.8346 9.37835 10.8346H10.3467C11.6017 10.8324 12.8186 10.4034 13.7976 9.61803C14.7765 8.83266 15.4591 7.73766 15.7333 6.51297C16.295 4.0313 14.4183 1.66797 11.8858 1.66797H8.01918C7.09085 1.66797 6.62751 1.66797 6.26085 1.8638C6.05251 1.97547 5.86918 2.13047 5.72585 2.31964C5.47335 2.65047 5.39751 3.11047 5.24501 4.03047Z" stroke="white" stroke-width="1.25"/>
<path d="M6.86918 16.25L6.67918 17.36C6.59168 17.8683 6.98752 18.3333 7.50918 18.3333H9.16752C9.58002 18.3333 9.93168 18.0383 9.99918 17.6367L10.6075 14.0292C10.6742 13.6275 11.0267 13.3333 11.4383 13.3333H12.9408C15.0917 13.3333 16.9542 11.8558 17.4208 9.77917C17.7475 8.325 17.0367 6.925 15.8333 6.25" stroke="white" stroke-width="1.25"/>
</svg>
